<?xml version="1.0" encoding="utf-8"?>
<!-- Generator: Adobe Illustrator 18.0.0, SVG Export Plug-In . SVG Version: 6.00 Build 0)  -->
<!DOCTYPE svg PUBLIC "-//W3C//DTD SVG 1.1//EN" "http://www.w3.org/Graphics/SVG/1.1/DTD/svg11.dtd">
<svg version="1.1" id="Icon_Set" xmlns="http://www.w3.org/2000/svg" xmlns:xlink="http://www.w3.org/1999/xlink" x="0px" y="0px"
	 viewBox="0 0 512 512" style="enable-background:new 0 0 512 512;" xml:space="preserve">
<style type="text/css">
	.st0{fill:#4C4372;}
	.st1{fill:#F0C48A;}
	.st2{fill:#FD919E;}
	.st3{fill:#E8677D;}
	.st4{fill:#D3E6F8;}
	.st5{fill:#A4CFF2;}
	.st6{fill:#7BABF1;}
	.st7{fill:#FFFFFF;}
</style>
<g>
	<g>
		<g>
			<g>
				<circle class="st1" cx="256" cy="256" r="207"/>
			</g>
		</g>
	</g>
	<g>
		<g>
			<g>
				<path class="st5" d="M332.439,428.467H49.784c-24.257,0-43.921-19.665-43.921-43.921v-0.001
					c0-24.257,19.664-43.921,43.921-43.921h282.655c24.257,0,43.921,19.664,43.921,43.921v0.001
					C376.36,408.802,356.696,428.467,332.439,428.467z"/>
			</g>
		</g>
		<g>
			<g>
				<path class="st6" d="M9.357,401.738c6.691,15.712,22.271,26.728,40.426,26.728h282.655c18.155,0,33.735-11.017,40.426-26.728
					H9.357z"/>
			</g>
		</g>
		<g>
			<g>
				<polygon class="st4" points="255.381,123.037 180.653,123.037 180.653,223.855 50.341,223.855 50.341,311.288 329.309,311.288 
					329.309,223.855 				"/>
			</g>
		</g>
		<g>
			<g>
				<polygon class="st5" points="302.936,311.288 329.309,311.288 329.309,223.855 302.936,187.889 				"/>
			</g>
		</g>
		<g>
			<g>
				<path class="st2" d="M435.226,296.408v-92.347h-31.938v197.677h102.849V367.32l0,0
					C466.974,367.32,435.226,335.572,435.226,296.408z"/>
			</g>
		</g>
		<g>
			<g>
				<path class="st3" d="M463.54,353.099v48.64h42.598V367.32l0,0C490.149,367.32,475.4,362.025,463.54,353.099z"/>
			</g>
		</g>
		<g>
			<g>
				<rect x="196.713" y="83.533" class="st6" width="19.831" height="39.504"/>
			</g>
		</g>
		<g>
			<g>
				<polygon class="st7" points="329.309,223.855 216.544,223.855 216.544,123.037 255.381,123.037 				"/>
			</g>
		</g>
		<g>
			<g>
				<rect x="74.873" y="311.288" class="st6" width="254.436" height="29.336"/>
			</g>
		</g>
		<g>
			<g>
				<rect x="329.309" y="255.254" class="st6" width="73.979" height="29.819"/>
			</g>
		</g>
		<g>
			<g>
				<rect x="329.309" y="311.288" class="st6" width="73.979" height="29.336"/>
			</g>
		</g>
		<g>
			<g>
				<rect x="50.341" y="223.855" class="st2" width="49.064" height="42.642"/>
			</g>
		</g>
		<g>
			<g>
				<rect x="74.873" y="163.643" class="st2" width="105.78" height="60.213"/>
			</g>
		</g>
		<g>
			<g>
				<path class="st2" d="M234.931,163.259L234.931,163.259c10.155,0,18.387,8.232,18.387,18.387v42.209h-36.774v-42.209
					C216.544,171.491,224.776,163.259,234.931,163.259z"/>
			</g>
		</g>
		<g>
			<g>
				<path class="st0" d="M332.44,434.329H49.784C22.333,434.329,0,411.996,0,384.545c0-27.451,22.333-49.784,49.784-49.784H332.44
					c27.451,0,49.784,22.333,49.784,49.784C382.223,411.996,359.89,434.329,332.44,434.329z M49.784,346.486
					c-20.986,0-38.059,17.073-38.059,38.059c0,20.986,17.073,38.059,38.059,38.059H332.44c20.985,0,38.059-17.073,38.059-38.059
					c0-20.986-17.073-38.059-38.059-38.059H49.784z"/>
			</g>
		</g>
		<g>
			<g>
				<g>
					<circle class="st6" cx="59.849" cy="384.545" r="19.438"/>
				</g>
			</g>
			<g>
				<g>
					<circle class="st6" cx="125.48" cy="384.545" r="19.439"/>
				</g>
			</g>
			<g>
				<g>
					<circle class="st6" cx="191.111" cy="384.545" r="19.438"/>
				</g>
			</g>
			<g>
				<g>
					<circle class="st6" cx="256.743" cy="384.545" r="19.439"/>
				</g>
			</g>
			<g>
				<g>
					<circle class="st6" cx="322.374" cy="384.545" r="19.438"/>
				</g>
			</g>
		</g>
		<g>
			<g>
				<path class="st0" d="M329.309,317.151H50.341c-3.237,0-5.862-2.625-5.862-5.863v-87.432c0-3.238,2.625-5.863,5.862-5.863h124.45
					v-94.957c0-3.238,2.625-5.863,5.862-5.863h74.728c1.868,0,3.624,0.89,4.728,2.396l73.928,100.819
					c0.737,1.005,1.135,2.22,1.135,3.467v87.432C335.171,314.526,332.546,317.151,329.309,317.151z M56.204,305.426h267.242v-79.651
					l-71.036-96.876h-65.895v94.957c0,3.238-2.625,5.863-5.863,5.863H56.204V305.426z"/>
			</g>
		</g>
		<g>
			<g>
				<path class="st0" d="M403.288,290.936h-73.979c-3.238,0-5.863-2.625-5.863-5.862v-29.82c0-3.238,2.625-5.863,5.863-5.863h73.979
					c3.238,0,5.863,2.625,5.863,5.863v29.82C409.151,288.311,406.526,290.936,403.288,290.936z M335.171,279.211h62.255v-18.094
					h-62.255V279.211z"/>
			</g>
		</g>
		<g>
			<g>
				<path class="st0" d="M403.288,346.486h-73.979c-3.238,0-5.863-2.625-5.863-5.862v-29.336c0-3.237,2.625-5.862,5.863-5.862
					h73.979c3.238,0,5.863,2.625,5.863,5.862v29.336C409.151,343.861,406.526,346.486,403.288,346.486z M335.171,334.762h62.255
					v-17.611h-62.255V334.762z"/>
			</g>
		</g>
		<g>
			<g>
				<path class="st0" d="M506.137,407.601H403.288c-3.237,0-5.862-2.625-5.862-5.862V204.061c0-3.238,2.625-5.863,5.862-5.863
					h31.938c3.238,0,5.862,2.625,5.862,5.863v92.347c0,35.869,29.181,65.049,65.049,65.049c3.238,0,5.863,2.625,5.863,5.863v34.418
					C512,404.976,509.375,407.601,506.137,407.601z M409.151,395.875h91.124v-22.914c-39.606-3.004-70.912-36.191-70.912-76.553
					v-86.484h-20.212V395.875z"/>
			</g>
		</g>
		<g>
			<g>
				<path class="st0" d="M329.309,346.486H74.873c-3.238,0-5.863-2.624-5.863-5.862v-29.336c0-3.238,2.624-5.862,5.863-5.862
					h254.436c3.237,0,5.862,2.624,5.862,5.862v29.336C335.171,343.862,332.546,346.486,329.309,346.486z M80.735,334.762h242.71
					v-17.611H80.735V334.762z"/>
			</g>
		</g>
		<g>
			<g>
				<path class="st0" d="M253.318,229.719h-36.774c-3.237,0-5.862-2.625-5.862-5.863v-42.21c0-13.371,10.878-24.249,24.25-24.249
					c13.371,0,24.25,10.878,24.25,24.249v42.21C259.181,227.094,256.556,229.719,253.318,229.719z M222.407,217.993h25.049v-36.347
					c0-6.906-5.619-12.524-12.524-12.524c-6.906,0-12.525,5.618-12.525,12.524V217.993z"/>
			</g>
		</g>
		<g>
			<g>
				<g>
					<path class="st0" d="M59.849,409.847c-13.951,0-25.301-11.351-25.301-25.301c0-13.951,11.35-25.302,25.301-25.302
						c13.951,0,25.301,11.35,25.301,25.302C85.149,398.496,73.799,409.847,59.849,409.847z M59.849,370.969
						c-7.486,0-13.576,6.09-13.576,13.576c0,7.486,6.09,13.576,13.576,13.576c7.485,0,13.576-6.09,13.576-13.576
						C73.424,377.059,67.334,370.969,59.849,370.969z"/>
				</g>
			</g>
			<g>
				<g>
					<path class="st0" d="M125.48,409.847c-13.951,0-25.301-11.351-25.301-25.301c0-13.951,11.35-25.302,25.301-25.302
						c13.951,0,25.301,11.35,25.301,25.302C150.781,398.496,139.431,409.847,125.48,409.847z M125.48,370.969
						c-7.486,0-13.576,6.09-13.576,13.576c0,7.486,6.09,13.576,13.576,13.576c7.486,0,13.576-6.09,13.576-13.576
						C139.056,377.059,132.966,370.969,125.48,370.969z"/>
				</g>
			</g>
			<g>
				<g>
					<path class="st0" d="M191.111,409.847c-13.951,0-25.301-11.351-25.301-25.301c0-13.951,11.35-25.302,25.301-25.302
						c13.951,0,25.301,11.35,25.301,25.302C216.413,398.496,205.063,409.847,191.111,409.847z M191.111,370.969
						c-7.485,0-13.576,6.09-13.576,13.576c0,7.486,6.09,13.576,13.576,13.576c7.486,0,13.576-6.09,13.576-13.576
						C204.688,377.059,198.597,370.969,191.111,370.969z"/>
				</g>
			</g>
			<g>
				<g>
					<path class="st0" d="M256.743,409.847c-13.951,0-25.301-11.351-25.301-25.301c0-13.951,11.351-25.302,25.301-25.302
						c13.952,0,25.301,11.35,25.301,25.302C282.044,398.496,270.694,409.847,256.743,409.847z M256.743,370.969
						c-7.486,0-13.576,6.09-13.576,13.576c0,7.486,6.09,13.576,13.576,13.576c7.486,0,13.577-6.09,13.577-13.576
						C270.319,377.059,264.229,370.969,256.743,370.969z"/>
				</g>
			</g>
			<g>
				<g>
					<path class="st0" d="M322.374,409.847c-13.951,0-25.301-11.351-25.301-25.301c0-13.951,11.35-25.302,25.301-25.302
						c13.951,0,25.301,11.35,25.301,25.302C347.675,398.496,336.325,409.847,322.374,409.847z M322.374,370.969
						c-7.486,0-13.576,6.09-13.576,13.576c0,7.486,6.09,13.576,13.576,13.576c7.486,0,13.576-6.09,13.576-13.576
						C335.95,377.059,329.86,370.969,322.374,370.969z"/>
				</g>
			</g>
		</g>
		<g>
			<g>
				<path class="st0" d="M216.544,128.899h-19.831c-3.237,0-5.862-2.625-5.862-5.863V83.533c0-3.237,2.625-5.862,5.862-5.862h19.831
					c3.238,0,5.863,2.625,5.863,5.862v39.503C222.407,126.274,219.782,128.899,216.544,128.899z M202.576,117.174h8.106V89.396
					h-8.106V117.174z"/>
			</g>
		</g>
		<g>
			<g>
				<polygon class="st4" points="302.936,223.855 230.192,123.037 255.381,123.037 329.309,223.855 				"/>
			</g>
		</g>
		<g>
			<g>
				<path class="st0" d="M329.309,229.719H216.544c-3.237,0-5.862-2.625-5.862-5.863V123.037c0-3.238,2.625-5.863,5.862-5.863
					h38.837c1.868,0,3.624,0.89,4.728,2.396l73.928,100.819c1.307,1.782,1.5,4.146,0.502,6.117
					C333.54,228.477,331.518,229.719,329.309,229.719z M222.407,217.993h95.333l-65.329-89.094h-30.004V217.993z"/>
			</g>
		</g>
		<g>
			<g>
				<rect x="147.658" y="163.643" class="st3" width="32.995" height="60.213"/>
			</g>
		</g>
		<g>
			<g>
				<path class="st0" d="M180.653,229.719H74.873c-3.238,0-5.863-2.625-5.863-5.863v-60.213c0-3.237,2.625-5.862,5.863-5.862h105.78
					c3.238,0,5.863,2.625,5.863,5.862v60.213C186.516,227.094,183.891,229.719,180.653,229.719z M80.735,217.993h94.055v-48.488
					H80.735V217.993z"/>
			</g>
		</g>
		<g>
			<g>
				<rect x="79.287" y="223.855" class="st3" width="20.118" height="42.642"/>
			</g>
		</g>
		<g>
			<g>
				<path class="st0" d="M99.405,272.36H50.341c-3.237,0-5.862-2.625-5.862-5.863v-42.641c0-3.238,2.625-5.863,5.862-5.863h49.064
					c3.238,0,5.863,2.625,5.863,5.863v42.641C105.268,269.735,102.643,272.36,99.405,272.36z M56.204,260.635h37.339v-30.916H56.204
					V260.635z"/>
			</g>
		</g>
	</g>
</g>
</svg>
