<?xml version="1.0" encoding="utf-8"?>
<!-- Generator: Adobe Illustrator 18.0.0, SVG Export Plug-In . SVG Version: 6.00 Build 0)  -->
<!DOCTYPE svg PUBLIC "-//W3C//DTD SVG 1.1//EN" "http://www.w3.org/Graphics/SVG/1.1/DTD/svg11.dtd">
<svg version="1.1" id="Icon_Set" xmlns="http://www.w3.org/2000/svg" xmlns:xlink="http://www.w3.org/1999/xlink" x="0px" y="0px"
	 viewBox="0 0 512 512" style="enable-background:new 0 0 512 512;" xml:space="preserve">
<style type="text/css">
	.st0{fill:#4C4372;}
	.st1{fill:#F0C48A;}
	.st2{fill:#FD919E;}
	.st3{fill:#E8677D;}
	.st4{fill:#D3E6F8;}
	.st5{fill:#A4CFF2;}
	.st6{fill:#7BABF1;}
	.st7{fill:#FFFFFF;}
</style>
<g>
	<g>
		<g>
			<g>
				<circle class="st1" cx="256" cy="256" r="207"/>
			</g>
		</g>
	</g>
	<g>
		<g>
			<g>
				<polygon class="st2" points="328.889,127.5 298.352,127.5 256.89,190.545 328.889,190.545 				"/>
			</g>
		</g>
		<g>
			<g>
				<rect x="302.395" y="127.5" class="st3" width="26.494" height="62.668"/>
			</g>
		</g>
		<g>
			<g>
				<path class="st0" d="M328.889,196.407h-71.998c-2.156,0-4.138-1.183-5.16-3.08c-1.023-1.897-0.924-4.202,0.262-6.003
					l41.462-63.047c1.084-1.648,2.925-2.641,4.897-2.641h30.537c3.237,0,5.862,2.625,5.862,5.863v63.045
					C334.751,193.782,332.126,196.407,328.889,196.407z M267.763,184.682h55.263v-51.32h-21.512L267.763,184.682z"/>
			</g>
		</g>
		<g>
			<g>
				<path class="st2" d="M294.819,174.289H20.645v-31.758h274.175c8.77,0,15.879,7.109,15.879,15.879l0,0
					C310.698,167.18,303.589,174.289,294.819,174.289z"/>
			</g>
		</g>
		<g>
			<g>
				<rect x="20.645" y="174.289" class="st2" width="190.643" height="31.758"/>
			</g>
		</g>
		<g>
			<g>
				<rect x="20.645" y="206.047" class="st2" width="190.643" height="31.758"/>
			</g>
		</g>
		<g>
			<g>
				<rect x="165.672" y="174.289" class="st3" width="45.615" height="63.516"/>
			</g>
		</g>
		<g>
			<g>
				<path class="st3" d="M310.559,156.408c-0.986-7.822-7.649-13.877-15.739-13.877h-29.876v31.758h29.876
					c8.09,0,14.753-6.055,15.739-13.877V156.408z"/>
			</g>
		</g>
		<g>
			<g>
				<path class="st2" d="M332.035,212.859h-78.293c-6.162,0-11.157-4.995-11.157-11.157l0,0c0-6.162,4.995-11.157,11.157-11.157
					h78.293c6.162,0,11.158,4.995,11.158,11.157l0,0C343.193,207.864,338.197,212.859,332.035,212.859z"/>
			</g>
		</g>
		<g>
			<g>
				<path class="st3" d="M332.035,190.545h-29.641v22.314h29.641c6.162,0,11.158-4.995,11.158-11.157
					C343.193,195.54,338.197,190.545,332.035,190.545z"/>
			</g>
		</g>
		<g>
			<g>
				<rect x="61.798" y="237.805" class="st6" width="195.092" height="19.384"/>
			</g>
		</g>
		<g>
			<g>
				<rect x="256.89" y="212.859" class="st2" width="71.999" height="42.314"/>
			</g>
		</g>
		<g>
			<g>
				<rect x="302.395" y="212.859" class="st3" width="26.494" height="42.314"/>
			</g>
		</g>
		<g>
			<g>
				<rect x="61.798" y="257.188" class="st5" width="288.706" height="45.096"/>
			</g>
		</g>
		<g>
			<g>
				<rect x="287.751" y="257.188" class="st6" width="62.753" height="45.096"/>
			</g>
		</g>
		<g>
			<g>
				<polygon class="st4" points="506.137,345.389 370.795,345.389 370.795,149.449 461.764,149.449 506.137,235.023 				"/>
			</g>
		</g>
		<g>
			<g>
				<polygon class="st5" points="469.806,345.389 506.137,345.389 506.137,235.023 469.806,164.96 				"/>
			</g>
		</g>
		<g>
			<g>
				<rect x="42.473" y="302.284" class="st5" width="328.322" height="43.104"/>
			</g>
		</g>
		<g>
			<g>
				<rect x="310.766" y="302.284" class="st6" width="60.029" height="43.104"/>
			</g>
		</g>
		<g>
			<g>
				<polygon class="st7" points="392.787,171.396 392.787,234.846 476.791,234.846 447.301,171.396 				"/>
			</g>
		</g>
		<g>
			<g>
				<path class="st4" d="M475.272,286.969h30.864V253.01h-30.864c-4.571,0-8.312,3.74-8.312,8.311v17.337
					C466.961,283.228,470.701,286.969,475.272,286.969z"/>
			</g>
		</g>
		<g>
			<g>
				<path class="st0" d="M506.137,351.252H370.796c-3.238,0-5.862-2.625-5.862-5.863V149.449c0-3.237,2.624-5.862,5.862-5.862
					h90.968c2.189,0,4.196,1.22,5.204,3.165l44.374,85.572c0.432,0.834,0.658,1.76,0.658,2.699v110.365
					C512,348.627,509.375,351.252,506.137,351.252z M376.658,339.525h123.616V236.452l-42.075-81.14h-81.541V339.525z"/>
			</g>
		</g>
		<g>
			<g>
				<path class="st0" d="M506.137,292.832h-30.864c-7.815,0-14.173-6.357-14.173-14.174V261.32c0-7.815,6.357-14.174,14.173-14.174
					h30.864c3.238,0,5.863,2.625,5.863,5.863v33.96C512,290.207,509.375,292.832,506.137,292.832z M475.272,258.872
					c-1.327,0-2.448,1.121-2.448,2.448v17.338c0,1.328,1.121,2.449,2.448,2.449h25.002v-22.235H475.272z"/>
			</g>
		</g>
		<g>
			<g>
				<path class="st0" d="M370.796,351.252H42.473c-3.238,0-5.863-2.625-5.863-5.863v-43.104c0-3.237,2.625-5.862,5.863-5.862
					h328.323c3.237,0,5.862,2.625,5.862,5.862v43.104C376.658,348.627,374.033,351.252,370.796,351.252z M48.335,339.525h316.599
					v-31.379H48.335V339.525z"/>
			</g>
		</g>
		<g>
			<g>
				<circle class="st6" cx="117.54" cy="343.393" r="41.108"/>
			</g>
		</g>
		<g>
			<g>
				<circle class="st6" cx="220.616" cy="343.393" r="41.108"/>
			</g>
		</g>
		<g>
			<g>
				<circle class="st6" cx="430.64" cy="343.393" r="41.108"/>
			</g>
		</g>
		<g>
			<g>
				<path class="st0" d="M117.54,390.363c-25.899,0-46.972-21.07-46.972-46.971c0-25.9,21.072-46.971,46.972-46.971
					c25.899,0,46.972,21.07,46.972,46.971C164.512,369.293,143.439,390.363,117.54,390.363z M117.54,308.147
					c-19.436,0-35.246,15.813-35.246,35.246c0,19.434,15.811,35.246,35.246,35.246c19.435,0,35.246-15.812,35.246-35.246
					C152.786,323.959,136.975,308.147,117.54,308.147z"/>
			</g>
		</g>
		<g>
			<g>
				<path class="st0" d="M220.615,390.363c-25.899,0-46.971-21.07-46.971-46.971c0-25.9,21.071-46.971,46.971-46.971
					c25.9,0,46.972,21.07,46.972,46.971C267.587,369.293,246.516,390.363,220.615,390.363z M220.615,308.147
					c-19.434,0-35.245,15.813-35.245,35.246c0,19.434,15.811,35.246,35.245,35.246c19.436,0,35.246-15.812,35.246-35.246
					C255.861,323.959,240.051,308.147,220.615,308.147z"/>
			</g>
		</g>
		<g>
			<g>
				<path class="st0" d="M430.641,390.363c-25.9,0-46.972-21.07-46.972-46.971c0-25.9,21.071-46.971,46.972-46.971
					c25.899,0,46.97,21.07,46.97,46.971C477.61,369.293,456.54,390.363,430.641,390.363z M430.641,308.147
					c-19.435,0-35.246,15.813-35.246,35.246c0,19.434,15.811,35.246,35.246,35.246c19.434,0,35.244-15.812,35.244-35.246
					C465.885,323.959,450.074,308.147,430.641,308.147z"/>
			</g>
		</g>
		<g>
			<g>
				<circle class="st7" cx="117.54" cy="343.393" r="19.556"/>
			</g>
		</g>
		<g>
			<g>
				<circle class="st7" cx="220.616" cy="343.393" r="19.556"/>
			</g>
		</g>
		<g>
			<g>
				<circle class="st7" cx="430.64" cy="343.393" r="19.556"/>
			</g>
		</g>
		<g>
			<g>
				<path class="st0" d="M117.54,368.81c-14.017,0-25.419-11.402-25.419-25.418s11.402-25.418,25.419-25.418
					s25.419,11.402,25.419,25.418S131.557,368.81,117.54,368.81z M117.54,329.699c-7.551,0-13.693,6.143-13.693,13.693
					c0,7.551,6.143,13.693,13.693,13.693c7.55,0,13.693-6.143,13.693-13.693C131.233,335.842,125.09,329.699,117.54,329.699z"/>
			</g>
		</g>
		<g>
			<g>
				<path class="st0" d="M220.615,368.81c-14.016,0-25.418-11.402-25.418-25.418s11.402-25.418,25.418-25.418
					c14.017,0,25.419,11.402,25.419,25.418S234.632,368.81,220.615,368.81z M220.615,329.699c-7.551,0-13.692,6.143-13.692,13.693
					c0,7.551,6.142,13.693,13.692,13.693c7.551,0,13.693-6.143,13.693-13.693C234.309,335.842,228.166,329.699,220.615,329.699z"/>
			</g>
		</g>
		<g>
			<g>
				<path class="st0" d="M430.641,368.81c-14.017,0-25.42-11.402-25.42-25.418s11.403-25.418,25.42-25.418
					c14.016,0,25.418,11.402,25.418,25.418S444.656,368.81,430.641,368.81z M430.641,329.699c-7.551,0-13.694,6.143-13.694,13.693
					c0,7.551,6.144,13.693,13.694,13.693c7.55,0,13.693-6.143,13.693-13.693C444.334,335.842,438.19,329.699,430.641,329.699z"/>
			</g>
		</g>
		<g>
			<g>
				<polygon class="st4" points="429.132,171.396 454.615,234.846 476.791,234.846 447.301,171.396 				"/>
			</g>
		</g>
		<g>
			<g>
				<path class="st0" d="M476.792,240.709h-84.005c-3.237,0-5.863-2.625-5.863-5.863v-63.449c0-3.238,2.626-5.863,5.863-5.863
					h54.514c2.281,0,4.354,1.324,5.316,3.392l29.491,63.45c0.844,1.816,0.702,3.938-0.374,5.625
					C480.657,239.688,478.794,240.709,476.792,240.709z M398.649,228.984h68.952l-24.041-51.726h-44.911V228.984z"/>
			</g>
		</g>
		<g>
			<g>
				<path class="st0" d="M350.504,308.147H61.798c-3.237,0-5.862-2.625-5.862-5.862V257.19c0-3.238,2.625-5.863,5.862-5.863h288.706
					c3.237,0,5.862,2.625,5.862,5.863v45.095C356.366,305.522,353.741,308.147,350.504,308.147z M67.66,296.422h276.98v-33.371
					H67.66V296.422z"/>
			</g>
		</g>
		<g>
			<g>
				<path class="st0" d="M328.889,261.037h-71.998c-3.238,0-5.863-2.625-5.863-5.862v-42.315c0-3.237,2.625-5.862,5.863-5.862
					h71.998c3.237,0,5.862,2.625,5.862,5.862v42.315C334.751,258.412,332.126,261.037,328.889,261.037z M262.753,249.313h60.272
					v-30.59h-60.272V249.313z"/>
			</g>
		</g>
		<g>
			<g>
				<path class="st0" d="M332.035,218.723h-78.293c-9.385,0-17.02-7.636-17.02-17.021c0-9.384,7.635-17.021,17.02-17.021h78.293
					c9.385,0,17.02,7.637,17.02,17.021C349.055,211.087,341.42,218.723,332.035,218.723z M253.742,196.407
					c-2.92,0-5.295,2.375-5.295,5.295c0,2.92,2.375,5.295,5.295,5.295h78.293c2.92,0,5.295-2.375,5.295-5.295
					c0-2.92-2.375-5.295-5.295-5.295H253.742z"/>
			</g>
		</g>
		<g>
			<g>
				<path class="st0" d="M256.891,263.051H61.798c-3.237,0-5.862-2.625-5.862-5.861v-19.385c0-3.238,2.625-5.863,5.862-5.863
					h195.093c3.237,0,5.862,2.625,5.862,5.863v19.385C262.753,260.426,260.128,263.051,256.891,263.051z M67.66,251.326h183.367
					v-7.658H67.66V251.326z"/>
			</g>
		</g>
		<g>
			<g>
				<path class="st0" d="M294.819,180.152H20.645c-3.237,0-5.862-2.625-5.862-5.863v-31.758c0-3.237,2.625-5.862,5.862-5.862
					h274.175c11.988,0,21.741,9.753,21.741,21.741C316.56,170.398,306.808,180.152,294.819,180.152z M26.508,168.426h268.311
					c5.522,0,10.017-4.492,10.017-10.016c0-5.523-4.494-10.016-10.017-10.016H26.508V168.426z"/>
			</g>
		</g>
		<g>
			<g>
				<path class="st0" d="M211.287,211.909H20.645c-3.237,0-5.862-2.625-5.862-5.862v-31.758c0-3.238,2.625-5.863,5.862-5.863
					h190.643c3.237,0,5.862,2.625,5.862,5.863v31.758C217.149,209.284,214.524,211.909,211.287,211.909z M26.508,200.184h178.916
					v-20.031H26.508V200.184z"/>
			</g>
		</g>
		<g>
			<g>
				<path class="st0" d="M211.287,243.668H20.645c-3.237,0-5.862-2.625-5.862-5.863v-31.758c0-3.238,2.625-5.863,5.862-5.863
					h190.643c3.237,0,5.862,2.625,5.862,5.863v31.758C217.149,241.043,214.524,243.668,211.287,243.668z M26.508,231.941h178.916
					v-20.032H26.508V231.941z"/>
			</g>
		</g>
		<g>
			<g>
				<circle class="st7" cx="20.753" cy="174.949" r="14.891"/>
			</g>
		</g>
		<g>
			<g>
				<circle class="st7" cx="211.287" cy="206.047" r="14.891"/>
			</g>
		</g>
		<g>
			<g>
				<path class="st0" d="M20.754,195.703C9.311,195.703,0,186.393,0,174.949c0-11.443,9.311-20.754,20.754-20.754
					s20.754,9.311,20.754,20.754C41.508,186.393,32.197,195.703,20.754,195.703z M20.754,165.921c-4.979,0-9.029,4.05-9.029,9.028
					s4.051,9.029,9.029,9.029c4.977,0,9.028-4.051,9.028-9.029S25.731,165.921,20.754,165.921z"/>
			</g>
		</g>
		<g>
			<g>
				<path class="st0" d="M211.287,226.801c-11.443,0-20.754-9.311-20.754-20.754c0-11.443,9.311-20.754,20.754-20.754
					c11.443,0,20.754,9.311,20.754,20.754C232.041,217.49,222.73,226.801,211.287,226.801z M211.287,197.018
					c-4.979,0-9.029,4.051-9.029,9.029s4.051,9.028,9.029,9.028s9.028-4.05,9.028-9.028S216.266,197.018,211.287,197.018z"/>
			</g>
		</g>
		<g>
			<g>
				<circle class="st0" cx="291.836" cy="158.41" r="8.221"/>
			</g>
		</g>
	</g>
</g>
</svg>
