<svg version="1.1" id="Icon_Set" xmlns="http://www.w3.org/2000/svg" xmlns:xlink="http://www.w3.org/1999/xlink" x="0px" y="0px"
	 viewBox="0 0 512 512" style="enable-background:new 0 0 512 512;" xml:space="preserve">
<style type="text/css">
	.st0{fill:#4C4372;}
	.st1{fill:#F0C48A;}
	.st2{fill:#FD919E;}
	.st3{fill:#E8677D;}
	.st4{fill:#D3E6F8;}
	.st5{fill:#A4CFF2;}
	.st6{fill:#7BABF1;}
	.st7{fill:#FFFFFF;}
</style>
<g>
	<g>
		<g>
			<g>
				<circle class="st1" cx="256" cy="256" r="207"/>
			</g>
		</g>
	</g>
	<g>
		<g>
			<g>
				<polygon class="st5" points="32.722,194 59.609,146 103.784,146 142.494,113 204.106,113 247.954,194 				"/>
			</g>
		</g>
		<g>
			<g>
				<polygon class="st6" points="247.954,194 204.106,113 183.051,113 226.813,194 				"/>
			</g>
		</g>
		<g>
			<g>
				<path class="st0" d="M247.973,200c-0.006,0-0.013,0-0.02,0H32.722c-2.082,0-4.007-1.485-5.06-3.282
					c-1.051-1.797-1.071-4.207-0.052-6.023l26.887-47.791c1.038-1.848,2.992-2.904,5.112-2.904h42.004l37.063-31.697
					c1.063-0.912,2.417-1.303,3.818-1.303h61.612c2.153,0,4.133,0.887,5.157,2.781l43.635,80.558
					c0.593,0.917,0.939,2.317,0.939,3.49C253.836,197.067,251.211,200,247.973,200z M42.738,188h195.381l-37.508-69h-55.946
					l-37.063,31.697c-1.063,0.912-2.417,1.303-3.818,1.303H63.04L42.738,188z"/>
			</g>
		</g>
		<g>
			<g>
				<path class="st4" d="M385.053,227.952l-22.933-70.764c-2.601-8.023-10.074-13.458-18.508-13.458h-62.546
					c-10.745,0-19.456,8.711-19.456,19.456v160.301h123.443h98.259l-23.275-81.401c-2.378-8.364-10.018-14.134-18.714-14.134
					H385.053z"/>
			</g>
		</g>
		<g>
			<g>
				<polygon class="st2" points="261.61,323.487 38.649,323.487 7.686,193.427 261.61,193.427 				"/>
			</g>
		</g>
		<g>
			<g>
				<rect x="236" y="194" class="st3" width="26" height="130"/>
			</g>
		</g>
		<g>
			<g>
				<path class="st5" d="M460.125,242.367C457.747,234.002,450.107,228,441.411,228h-21.674c8.695,0,16.336,6.002,18.713,14.367
					L461.726,324H483.4L460.125,242.367z"/>
			</g>
		</g>
		<g>
			<g>
				<polygon class="st6" points="284,164 342.204,164 360.877,228 284,228 				"/>
			</g>
		</g>
		<g>
			<g>
				<path class="st0" d="M261.609,329.35H38.65c-2.715,0-5.075-1.863-5.704-4.505L1.983,194.785
					c-0.416-1.745-0.009-3.584,1.103-4.992c1.112-1.408,2.807-2.229,4.601-2.229h253.923c3.238,0,5.863,2.625,5.863,5.863v130.06
					C267.472,326.725,264.847,329.35,261.609,329.35z M43.28,317.625h212.467V199.29H15.108L43.28,317.625z"/>
			</g>
		</g>
		<g>
			<g>
				<path class="st0" d="M483.312,329.35H261.609c-3.237,0-5.862-2.625-5.862-5.863V163.186c0-13.96,11.358-25.318,25.319-25.318
					h62.545c11.012,0,20.691,7.038,24.086,17.512l21.619,66.709h52.006c11.26,0,21.274,7.564,24.353,18.394l23.273,81.393
					c0.506,1.769,0.152,3.673-0.956,5.141C486.884,328.486,485.151,329.35,483.312,329.35z M267.472,317.625h208.066L454.4,243.697
					c-1.656-5.822-7.033-9.883-13.078-9.883h-56.27c-2.541,0-4.794-1.637-5.577-4.055l-22.932-70.764
					c-1.823-5.624-7.019-9.402-12.932-9.402h-62.545c-7.496,0-13.594,6.098-13.594,13.593V317.625z"/>
			</g>
		</g>
		<g>
			<g>
				<path class="st0" d="M360.896,234c-0.005,0-0.011,0-0.019,0h-76.453c-3.238,0-6.424-3.188-6.424-6.426v-64.489
					c0-3.238,3.186-5.086,6.424-5.086h57.779c2.61,0,4.906,1.337,5.632,3.844l18.539,63.831c0.249,0.65,0.385,1.54,0.385,2.279
					C366.759,231.19,364.135,234,360.896,234z M290,222h63.077l-15.278-52H290V222z"/>
			</g>
		</g>
		<g>
			<g>
				<path class="st0" d="M259.951,240H19.676c-3.238,0-5.863-2.762-5.863-6s2.624-6,5.863-6h240.274c3.238,0,5.863,2.762,5.863,6
					S263.189,240,259.951,240z"/>
			</g>
		</g>
		<g>
			<g>
				<path class="st5" d="M491.401,353.217H20.599c-8.139,0-14.736-6.597-14.736-14.736v-24.41c0-8.139,6.598-14.736,14.736-14.736
					h470.803c8.138,0,14.736,6.597,14.736,14.736v24.41C506.137,346.62,499.54,353.217,491.401,353.217z"/>
			</g>
		</g>
		<g>
			<g>
				<path class="st0" d="M491.401,359.081H20.599C9.24,359.081,0,349.84,0,338.481v-24.409c0-11.359,9.24-20.599,20.599-20.599
					h470.803c11.358,0,20.599,9.241,20.599,20.599v24.409C512,349.84,502.759,359.081,491.401,359.081z M20.599,305.198
					c-4.893,0-8.874,3.981-8.874,8.874v24.409c0,4.893,3.981,8.874,8.874,8.874h470.803c4.892,0,8.874-3.981,8.874-8.874v-24.409
					c0-4.893-3.981-8.874-8.874-8.874H20.599z"/>
			</g>
		</g>
		<g>
			<g>
				<circle class="st6" cx="366.479" cy="334.532" r="64.689"/>
			</g>
		</g>
		<g>
			<g>
				<circle class="st6" cx="121.867" cy="334.532" r="64.689"/>
			</g>
		</g>
		<g>
			<g>
				<circle class="st7" cx="121.867" cy="334.532" r="30.158"/>
			</g>
		</g>
		<g>
			<g>
				<circle class="st7" cx="366.48" cy="334.532" r="30.158"/>
			</g>
		</g>
		<g>
			<g>
				<path class="st0" d="M366.479,405.084c-38.903,0-70.551-31.649-70.551-70.552c0-38.903,31.648-70.552,70.551-70.552
					s70.551,31.65,70.551,70.552C437.031,373.435,405.382,405.084,366.479,405.084z M366.479,275.705
					c-32.437,0-58.826,26.39-58.826,58.827s26.389,58.826,58.826,58.826s58.826-26.389,58.826-58.826
					S398.917,275.705,366.479,275.705z"/>
			</g>
		</g>
		<g>
			<g>
				<path class="st0" d="M121.867,405.084c-38.902,0-70.551-31.649-70.551-70.552c0-38.903,31.649-70.552,70.551-70.552
					c38.902,0,70.552,31.65,70.552,70.552C192.418,373.435,160.769,405.084,121.867,405.084z M121.867,275.705
					c-32.437,0-58.826,26.39-58.826,58.827s26.389,58.826,58.826,58.826s58.827-26.389,58.827-58.826
					S154.304,275.705,121.867,275.705z"/>
			</g>
		</g>
		<g>
			<g>
				<path class="st0" d="M121.867,370.553c-19.862,0-36.021-16.159-36.021-36.021c0-19.862,16.159-36.021,36.021-36.021
					c19.862,0,36.021,16.159,36.021,36.021C157.888,354.394,141.729,370.553,121.867,370.553z M121.867,310.236
					c-13.396,0-24.295,10.899-24.295,24.296c0,13.397,10.899,24.296,24.295,24.296c13.397,0,24.296-10.899,24.296-24.296
					C146.163,321.135,135.264,310.236,121.867,310.236z"/>
			</g>
		</g>
		<g>
			<g>
				<path class="st0" d="M366.479,370.553c-19.862,0-36.021-16.159-36.021-36.021c0-19.862,16.159-36.021,36.021-36.021
					s36.021,16.159,36.021,36.021C402.5,354.394,386.341,370.553,366.479,370.553z M366.479,310.236
					c-13.397,0-24.296,10.899-24.296,24.296c0,13.397,10.899,24.296,24.296,24.296s24.296-10.899,24.296-24.296
					C390.775,321.135,379.876,310.236,366.479,310.236z"/>
			</g>
		</g>
		<g>
			<g>
				<path class="st5" d="M293.196,366.669h-98.223c-4.697,0-8.505-3.808-8.505-8.506v-63.326c0-4.698,3.808-8.506,8.505-8.506
					h98.223c4.698,0,8.506,3.808,8.506,8.506v63.326C301.702,362.861,297.894,366.669,293.196,366.669z"/>
			</g>
		</g>
		<g>
			<g>
				<path class="st6" d="M293.285,287H276v80h17.285c4.698,0,8.715-3.888,8.715-8.586v-63.327C302,290.39,297.982,287,293.285,287z"
					/>
			</g>
		</g>
		<g>
			<g>
				<path class="st0" d="M293.196,372.531h-98.223c-7.923,0-14.368-6.446-14.368-14.368v-63.326c0-7.923,6.445-14.368,14.368-14.368
					h98.223c7.923,0,14.369,6.446,14.369,14.368v63.326C307.565,366.085,301.119,372.531,293.196,372.531z M194.973,292.193
					c-1.458,0-2.643,1.186-2.643,2.643v63.326c0,1.457,1.186,2.643,2.643,2.643h98.223c1.457,0,2.643-1.186,2.643-2.643v-63.326
					c0-1.457-1.186-2.643-2.643-2.643H194.973z"/>
			</g>
		</g>
		<g>
			<g>
				<path class="st0" d="M302.012,333H186.714c-3.238,0-5.863-2.763-5.863-6s2.625-6,5.863-6h115.298c3.237,0,5.862,2.763,5.862,6
					S305.249,333,302.012,333z"/>
			</g>
		</g>
	</g>
</g>
</svg>
