<?xml version="1.0" encoding="utf-8"?>
<!-- Generator: Adobe Illustrator 18.0.0, SVG Export Plug-In . SVG Version: 6.00 Build 0)  -->
<!DOCTYPE svg PUBLIC "-//W3C//DTD SVG 1.1//EN" "http://www.w3.org/Graphics/SVG/1.1/DTD/svg11.dtd">
<svg version="1.1" id="Icon_Set" xmlns="http://www.w3.org/2000/svg" xmlns:xlink="http://www.w3.org/1999/xlink" x="0px" y="0px"
	 viewBox="0 0 512 512" style="enable-background:new 0 0 512 512;" xml:space="preserve">
<style type="text/css">
	.st0{fill:#4C4372;}
	.st1{fill:#F0C48A;}
	.st2{fill:#FD919E;}
	.st3{fill:#E8677D;}
	.st4{fill:#D3E6F8;}
	.st5{fill:#A4CFF2;}
	.st6{fill:#7BABF1;}
	.st7{fill:#FFFFFF;}
</style>
<g>
	<g>
		<g>
			<g>
				<circle class="st1" cx="256" cy="256" r="207"/>
			</g>
		</g>
	</g>
	<g>
		<g>
			<g>
				<path class="st4" d="M483.575,351.383l-51.022-83.496h-21.188v99.295h48.556h33.31h5.009c4.362,0,7.899-3.537,7.899-7.9l0,0
					c0-4.361-3.537-7.898-7.899-7.898H483.575z"/>
			</g>
		</g>
		<g>
			<g>
				<path class="st5" d="M417.185,267.887l59.892,99.295h16.153h5.009c4.362,0,7.899-3.537,7.899-7.899s-3.537-7.899-7.899-7.899
					h-14.663l-51.022-83.496H417.185z"/>
			</g>
		</g>
		<g>
			<g>
				<g>
					<polygon class="st3" points="105.408,154.767 77.309,139.664 5.864,282.942 24.656,293.043 					"/>
				</g>
			</g>
			<g>
				<g>
					<polygon class="st2" points="94.917,149.129 17.644,282.942 5.864,282.942 77.309,139.664 					"/>
				</g>
			</g>
			<g>
				<g>
					<path class="st0" d="M24.652,298.906c-0.938,0-1.889-0.225-2.771-0.699l-18.793-10.1c-2.791-1.5-3.885-4.946-2.472-7.781
						l71.445-143.279c0.708-1.419,1.96-2.491,3.472-2.971c1.512-0.48,3.153-0.326,4.551,0.424l28.099,15.102
						c1.401,0.753,2.437,2.044,2.868,3.574c0.431,1.532,0.222,3.173-0.581,4.546L29.718,296
						C28.632,297.861,26.671,298.906,24.652,298.906z M13.648,280.471l8.799,4.729l74.836-128.145l-17.425-9.365L13.648,280.471z"/>
				</g>
			</g>
			<g>
				<g>
					<polygon class="st3" points="181.618,279.983 222.564,244.133 106.187,122.952 76.877,148.615 					"/>
				</g>
			</g>
			<g>
				<g>
					<polygon class="st2" points="208.441,256.5 100.442,139.664 76.877,148.615 181.618,279.983 					"/>
				</g>
			</g>
			<g>
				<g>
					<path class="st0" d="M181.618,285.846c-0.173,0-0.348-0.008-0.523-0.023c-1.595-0.143-3.063-0.932-4.061-2.186L72.293,152.27
						c-1.953-2.449-1.635-6.002,0.722-8.066l29.31-25.662c2.358-2.063,5.92-1.91,8.091,0.351l116.377,121.181
						c1.109,1.156,1.698,2.715,1.628,4.314c-0.069,1.602-0.79,3.103-1.995,4.158l-40.946,35.85
						C184.407,285.334,183.033,285.846,181.618,285.846z M84.951,149.337l97.423,122.19l31.708-27.762L105.837,131.052
						L84.951,149.337z"/>
				</g>
			</g>
			<g>
				<g>
					<circle class="st3" cx="94.917" cy="144.995" r="35.148"/>
				</g>
			</g>
			<g>
				<g>
					<path class="st0" d="M94.918,186.005c-22.613,0-41.011-18.396-41.011-41.011c0-22.613,18.397-41.01,41.011-41.01
						c22.613,0,41.01,18.396,41.01,41.01C135.928,167.608,117.53,186.005,94.918,186.005z M94.918,115.709
						c-16.148,0-29.286,13.138-29.286,29.285c0,16.148,13.138,29.285,29.286,29.285c16.147,0,29.285-13.137,29.285-29.285
						C124.203,128.847,111.065,115.709,94.918,115.709z"/>
				</g>
			</g>
			<g>
				<g>
					<circle class="st2" cx="94.917" cy="144.995" r="18.758"/>
				</g>
			</g>
			<g>
				<g>
					<path class="st0" d="M94.918,169.615c-13.576,0-24.621-11.045-24.621-24.621c0-13.574,11.045-24.619,24.621-24.619
						c13.576,0,24.621,11.045,24.621,24.619C119.538,158.57,108.493,169.615,94.918,169.615z M94.918,132.1
						c-7.111,0-12.896,5.784-12.896,12.895c0,7.111,5.785,12.896,12.896,12.896c7.11,0,12.896-5.785,12.896-12.896
						C107.813,137.884,102.028,132.1,94.918,132.1z"/>
				</g>
			</g>
			<g>
				<g>
					<path class="st3" d="M76.159,282.942c0,19.411-15.736,35.147-35.148,35.147c-19.412,0-35.147-15.736-35.147-35.147H76.159z"/>
				</g>
			</g>
			<g>
				<g>
					<path class="st0" d="M41.011,323.953c-22.613,0-41.01-18.396-41.01-41.01c0-3.238,2.625-5.863,5.863-5.863h70.295
						c3.238,0,5.863,2.625,5.863,5.863C82.022,305.557,63.625,323.953,41.011,323.953z M12.316,288.805
						c2.723,13.348,14.555,23.424,28.695,23.424c14.14,0,25.973-10.076,28.696-23.424H12.316z"/>
				</g>
			</g>
		</g>
		<g>
			<g>
				<path class="st4" d="M313.903,253.14h-6.729l-6.017-66.966c-0.782-8.707-8.081-15.379-16.823-15.379h-74.648
					c-9.329,0-16.891,7.563-16.891,16.891v65.454h-42.96c-9.329,0-16.891,7.562-16.891,16.892v94.744h59.852h121.108h3.301h56.55
					v-94.744c0-9.329-7.563-16.892-16.891-16.892H313.903z"/>
			</g>
		</g>
		<g>
			<g>
				<polygon class="st5" points="267.005,256.793 267.005,343.523 286.76,343.523 286.76,253.14 267.005,253.14 				"/>
			</g>
		</g>
		<g>
			<g>
				<path class="st5" d="M356.863,253.14h-7.13v111.636h24.021v-94.744C373.755,260.702,366.192,253.14,356.863,253.14z"/>
			</g>
		</g>
		<g>
			<g>
				<rect x="320.103" y="226.669" class="st6" width="26.471" height="26.471"/>
			</g>
		</g>
		<g>
			<g>
				<rect x="325.645" y="201.468" class="st6" width="15.906" height="25.201"/>
			</g>
		</g>
		<g>
			<g>
				<path class="st0" d="M373.755,370.637H132.944c-3.238,0-5.863-2.625-5.863-5.862V270.03c0-12.546,10.208-22.753,22.754-22.753
					h37.098v-59.592c0-12.546,10.208-22.753,22.754-22.753h74.648c11.858,0,21.601,8.906,22.663,20.717l5.537,61.628h44.33
					c12.546,0,22.754,10.207,22.754,22.753v94.744C379.617,368.012,376.992,370.637,373.755,370.637z M138.806,358.912h229.085
					V270.03c0-6.081-4.947-11.028-11.028-11.028h-49.689c-3.034,0-5.567-2.317-5.839-5.338l-6.017-66.965
					c-0.514-5.725-5.236-10.041-10.984-10.041h-74.648c-6.081,0-11.028,4.947-11.028,11.027v65.453c0,3.238-2.625,5.863-5.863,5.863
					h-42.96c-6.081,0-11.028,4.947-11.028,11.028V358.912z"/>
			</g>
		</g>
		<g>
			<g>
				<path class="st0" d="M346.574,259.002h-26.471c-3.237,0-5.862-2.625-5.862-5.863V226.67c0-3.238,2.625-5.863,5.862-5.863h26.471
					c3.237,0,5.862,2.625,5.862,5.863v26.469C352.436,256.377,349.811,259.002,346.574,259.002z M325.965,247.277h14.746v-14.746
					h-14.746V247.277z"/>
			</g>
		</g>
		<g>
			<g>
				<path class="st0" d="M341.55,232.531h-15.906c-3.238,0-5.863-2.625-5.863-5.861v-25.202c0-3.237,2.625-5.862,5.863-5.862h15.906
					c3.238,0,5.863,2.625,5.863,5.862v25.202C347.413,229.906,344.788,232.531,341.55,232.531z M331.507,220.807h4.181V207.33
					h-4.181V220.807z"/>
			</g>
		</g>
		<g>
			<g>
				<circle class="st6" cx="173.76" cy="345.267" r="56.887"/>
			</g>
		</g>
		<g>
			<g>
				<circle class="st6" cx="356.221" cy="364.637" r="37.516"/>
			</g>
		</g>
		<g>
			<g>
				<path class="st0" d="M173.76,408.016c-34.6,0-62.75-28.149-62.75-62.75c0-34.6,28.149-62.748,62.75-62.748
					c34.6,0,62.749,28.148,62.749,62.748C236.509,379.866,208.36,408.016,173.76,408.016z M173.76,294.242
					c-28.135,0-51.024,22.889-51.024,51.023c0,28.136,22.889,51.025,51.024,51.025c28.134,0,51.023-22.89,51.023-51.025
					C224.783,317.131,201.894,294.242,173.76,294.242z"/>
			</g>
		</g>
		<g>
			<g>
				<path class="st0" d="M356.221,408.016c-23.919,0-43.379-19.459-43.379-43.379c0-23.92,19.46-43.379,43.379-43.379
					c23.919,0,43.379,19.459,43.379,43.379C399.6,388.557,380.14,408.016,356.221,408.016z M356.221,332.982
					c-17.454,0-31.654,14.199-31.654,31.654c0,17.453,14.2,31.654,31.654,31.654s31.654-14.201,31.654-31.654
					C387.875,347.182,373.675,332.982,356.221,332.982z"/>
			</g>
		</g>
		<g>
			<g>
				<path class="st6" d="M411.364,306.029h-61.807c-5.72,0-10.357-4.637-10.357-10.357l0,0c0-5.719,4.637-10.357,10.357-10.357
					h61.807V306.029z"/>
			</g>
		</g>
		<g>
			<g>
				<path class="st0" d="M411.364,311.893h-61.807c-8.943,0-16.22-7.276-16.22-16.221c0-8.943,7.276-16.219,16.22-16.219h61.807
					c3.237,0,5.862,2.625,5.862,5.863v20.713C417.227,309.268,414.602,311.893,411.364,311.893z M349.558,291.178
					c-2.478,0-4.495,2.018-4.495,4.494c0,2.478,2.017,4.496,4.495,4.496h55.944v-8.99H349.558z"/>
			</g>
		</g>
		<g>
			<g>
				<path class="st0" d="M498.238,373.043h-86.874c-3.238,0-5.863-2.625-5.863-5.861v-99.295c0-3.236,2.625-5.861,5.863-5.861
					h21.188c2.042,0,3.938,1.063,5.003,2.805l49.308,80.689h11.374c7.588,0,13.762,6.174,13.762,13.763
					C512,366.869,505.826,373.043,498.238,373.043z M417.227,361.318h81.011c1.123,0,2.037-0.913,2.037-2.036
					c0-1.123-0.914-2.037-2.037-2.037h-14.663c-2.043,0-3.938-1.063-5.002-2.806l-49.308-80.69h-12.038V361.318z"/>
			</g>
		</g>
		<g>
			<g>
				<path class="st0" d="M286.76,370.637c-3.237,0-5.862-2.625-5.862-5.862V253.139c0-3.236,2.625-5.861,5.862-5.861
					c3.238,0,5.863,2.625,5.863,5.861v111.636C292.623,368.012,289.998,370.637,286.76,370.637z"/>
			</g>
		</g>
		<g>
			<g>
				<path class="st0" d="M211.855,308.885c-3.238,0-5.863-2.625-5.863-5.863v-49.883c0-3.236,2.625-5.861,5.863-5.861
					c3.238,0,5.863,2.625,5.863,5.861v49.883C217.718,306.26,215.093,308.885,211.855,308.885z"/>
			</g>
		</g>
		<g>
			<g>
				<path class="st0" d="M324.087,349.387h-93.441c-3.238,0-5.863-2.625-5.863-5.863c0-3.237,2.625-5.862,5.863-5.862h93.441
					c3.238,0,5.863,2.625,5.863,5.862C329.95,346.762,327.325,349.387,324.087,349.387z"/>
			</g>
		</g>
		<g>
			<g>
				<polygon class="st7" points="286.76,253.14 211.855,253.14 211.855,189.15 283.275,189.15 				"/>
			</g>
		</g>
		<g>
			<g>
				<polygon class="st4" points="267.005,189.15 267.005,253.14 286.76,253.14 283.275,189.15 				"/>
			</g>
		</g>
		<g>
			<g>
				<path class="st0" d="M286.76,259.002h-74.905c-3.238,0-5.863-2.625-5.863-5.863V189.15c0-3.238,2.625-5.863,5.863-5.863h71.42
					c3.114,0,5.685,2.435,5.854,5.545l3.485,63.988c0.087,1.607-0.49,3.182-1.597,4.351
					C289.91,258.34,288.371,259.002,286.76,259.002z M217.718,247.277h62.852l-2.847-52.265h-60.005V247.277z"/>
			</g>
		</g>
		<g>
			<g>
				<path class="st2" d="M258.212,253.14h-25.818v-30.501c0-7.129,5.779-12.909,12.909-12.909l0,0
					c7.129,0,12.909,5.78,12.909,12.909V253.14z"/>
			</g>
		</g>
		<g>
			<g>
				<path class="st3" d="M247.28,209.896v43.243h10.931v-30.501C258.212,216.184,253.468,210.851,247.28,209.896z"/>
			</g>
		</g>
		<g>
			<g>
				<path class="st0" d="M258.212,259.002h-25.818c-3.237,0-5.862-2.625-5.862-5.863v-30.5c0-10.352,8.42-18.771,18.771-18.771
					c10.351,0,18.771,8.42,18.771,18.771v30.5C264.074,256.377,261.449,259.002,258.212,259.002z M238.256,247.277h14.092v-24.639
					c0-3.886-3.161-7.047-7.046-7.047c-3.885,0-7.046,3.161-7.046,7.047V247.277z"/>
			</g>
		</g>
		<g>
			<g>
				<circle class="st7" cx="173.76" cy="345.267" r="30.268"/>
			</g>
		</g>
		<g>
			<g>
				<path class="st4" d="M191.557,320.789c2.712,4.535,4.275,9.839,4.275,15.51c0,16.717-13.552,30.268-30.268,30.268
					c-6.653,0-12.801-2.152-17.797-5.791c5.285,8.839,14.946,14.76,25.994,14.76c16.717,0,30.268-13.552,30.268-30.269
					C204.028,335.203,199.113,326.293,191.557,320.789z"/>
			</g>
		</g>
		<g>
			<g>
				<path class="st0" d="M173.76,381.397c-19.923,0-36.131-16.209-36.131-36.132c0-19.922,16.208-36.131,36.131-36.131
					c19.922,0,36.131,16.209,36.131,36.131C209.891,365.189,193.682,381.397,173.76,381.397z M173.76,320.86
					c-13.458,0-24.406,10.949-24.406,24.405c0,13.459,10.949,24.406,24.406,24.406c13.457,0,24.406-10.947,24.406-24.406
					C198.166,331.81,187.217,320.86,173.76,320.86z"/>
			</g>
		</g>
		<g>
			<g>
				<circle class="st7" cx="356.221" cy="364.637" r="19.37"/>
			</g>
		</g>
		<g>
			<g>
				<path class="st4" d="M365.661,347.723c1.759,2.917,2.771,6.334,2.771,9.988c0,10.697-8.672,19.369-19.37,19.369
					c-3.428,0-6.647-0.894-9.44-2.457c3.39,5.623,9.555,9.383,16.598,9.383c10.698,0,19.37-8.672,19.37-19.369
					C375.59,357.367,371.584,351.037,365.661,347.723z"/>
			</g>
		</g>
		<g>
			<g>
				<path class="st0" d="M356.221,389.869c-13.914,0-25.233-11.32-25.233-25.232c0-13.914,11.319-25.233,25.233-25.233
					c13.913,0,25.232,11.319,25.232,25.233C381.453,378.549,370.134,389.869,356.221,389.869z M356.221,351.129
					c-7.448,0-13.508,6.059-13.508,13.508c0,7.447,6.06,13.508,13.508,13.508c7.448,0,13.507-6.06,13.507-13.508
					C369.728,357.188,363.669,351.129,356.221,351.129z"/>
			</g>
		</g>
	</g>
</g>
</svg>
