<?xml version="1.0" encoding="utf-8"?>
<!-- Generator: Adobe Illustrator 18.0.0, SVG Export Plug-In . SVG Version: 6.00 Build 0)  -->
<!DOCTYPE svg PUBLIC "-//W3C//DTD SVG 1.1//EN" "http://www.w3.org/Graphics/SVG/1.1/DTD/svg11.dtd">
<svg version="1.1" id="Icon_Set" xmlns="http://www.w3.org/2000/svg" xmlns:xlink="http://www.w3.org/1999/xlink" x="0px" y="0px"
	 viewBox="0 0 512 512" style="enable-background:new 0 0 512 512;" xml:space="preserve">
<style type="text/css">
	.st0{fill:#4C4372;}
	.st1{fill:#F0C48A;}
	.st2{fill:#FD919E;}
	.st3{fill:#E8677D;}
	.st4{fill:#D3E6F8;}
	.st5{fill:#A4CFF2;}
	.st6{fill:#7BABF1;}
	.st7{fill:#FFFFFF;}
</style>
<g>
	<g>
		<g>
			<g>
				<circle class="st1" cx="256" cy="256" r="207"/>
			</g>
		</g>
	</g>
	<g>
		<g>
			<g>
				<polygon class="st4" points="293.97,106.396 293.97,106.396 164.027,106.396 164.027,127.904 283.27,127.904 283.27,127.904 
					340.181,193.682 340.181,328.103 359.361,328.103 359.361,184.035 				"/>
			</g>
		</g>
		<g>
			<g>
				<rect x="340.181" y="273.982" class="st5" width="19.18" height="54.121"/>
			</g>
		</g>
		<g>
			<g>
				<polygon class="st4" points="506.137,368.736 378.558,368.736 378.558,184.035 464.308,184.035 506.137,264.701 				"/>
			</g>
		</g>
		<g>
			<g>
				<polygon class="st5" points="471.89,368.736 506.137,368.736 506.137,264.7 471.89,198.656 				"/>
			</g>
		</g>
		<g>
			<g>
				<polygon class="st2" points="91.285,176.613 91.285,221.145 113.224,221.145 113.224,195.302 193.483,195.302 193.483,221.145 
					215.422,221.145 215.422,176.613 				"/>
			</g>
		</g>
		<g>
			<g>
				<polygon class="st3" points="182.702,195.301 193.483,195.301 193.483,221.145 215.422,221.145 215.422,176.613 
					182.702,176.613 				"/>
			</g>
		</g>
		<g>
			<g>
				<polygon class="st4" points="359.361,184.035 359.361,106.396 293.97,106.396 311,126.38 339.667,126.38 339.667,160.334 				
					"/>
			</g>
		</g>
		<g>
			<g>
				<rect x="69.067" y="328.105" class="st5" width="309.491" height="40.632"/>
			</g>
		</g>
		<g>
			<g>
				<rect x="321.971" y="328.105" class="st6" width="56.587" height="40.632"/>
			</g>
		</g>
		<g>
			<g>
				<rect x="139.829" y="106.394" class="st6" width="24.198" height="50.924"/>
			</g>
		</g>
		<g>
			<g>
				<polygon class="st7" points="399.289,204.724 399.289,264.534 478.475,264.534 450.675,204.724 				"/>
			</g>
		</g>
		<g>
			<g>
				<path class="st4" d="M477.043,313.668h29.094v-32.012h-29.094c-4.309,0-7.835,3.525-7.835,7.834v16.344
					C469.208,310.142,472.734,313.668,477.043,313.668z"/>
			</g>
		</g>
		<g>
			<g>
				<rect x="5.862" y="276.386" class="st2" width="52.869" height="51.719"/>
			</g>
		</g>
		<g>
			<g>
				<rect x="58.511" y="276.386" class="st2" width="52.868" height="51.719"/>
			</g>
		</g>
		<g>
			<g>
				<rect x="111.159" y="276.386" class="st2" width="52.868" height="51.719"/>
			</g>
		</g>
		<g>
			<g>
				<rect x="163.807" y="276.386" class="st2" width="52.868" height="51.719"/>
			</g>
		</g>
		<g>
			<g>
				<rect x="216.455" y="276.386" class="st2" width="52.869" height="51.719"/>
			</g>
		</g>
		<g>
			<g>
				<rect x="269.103" y="276.386" class="st2" width="52.868" height="51.719"/>
			</g>
		</g>
		<g>
			<g>
				<rect x="295.537" y="276.386" class="st3" width="26.434" height="51.719"/>
			</g>
		</g>
		<g>
			<g>
				<rect x="143.599" y="195.302" class="st3" width="19.509" height="25.844"/>
			</g>
		</g>
		<g>
			<g>
				<path class="st0" d="M506.137,374.598H378.558c-3.238,0-5.863-2.625-5.863-5.861V184.035c0-3.237,2.625-5.862,5.863-5.862h85.75
					c2.189,0,4.196,1.22,5.205,3.164l41.829,80.665c0.432,0.834,0.658,1.76,0.658,2.698v104.036
					C512,371.973,509.375,374.598,506.137,374.598z M384.42,362.873h115.854V266.13l-39.53-76.232H384.42V362.873z"/>
			</g>
		</g>
		<g>
			<g>
				<path class="st0" d="M506.137,319.529h-29.094c-7.553,0-13.697-6.144-13.697-13.695V289.49c0-7.552,6.145-13.697,13.697-13.697
					h29.094c3.238,0,5.863,2.625,5.863,5.862v32.013C512,316.904,509.375,319.529,506.137,319.529z M477.043,287.518
					c-1.069,0-1.972,0.904-1.972,1.973v16.344c0,1.068,0.903,1.971,1.972,1.971h23.231v-20.287H477.043z"/>
			</g>
		</g>
		<g>
			<g>
				<path class="st0" d="M378.558,374.598H69.066c-3.237,0-5.862-2.625-5.862-5.861v-40.632c0-3.238,2.625-5.863,5.862-5.863
					h309.492c3.237,0,5.862,2.625,5.862,5.863v40.632C384.42,371.973,381.795,374.598,378.558,374.598z M74.929,362.873h297.766
					v-28.906H74.929V362.873z"/>
			</g>
		</g>
		<g>
			<g>
				<path class="st0" d="M58.731,333.967H5.862c-3.237,0-5.862-2.625-5.862-5.862v-51.719c0-3.237,2.625-5.862,5.862-5.862h52.869
					c3.237,0,5.862,2.625,5.862,5.862v51.719C64.593,331.342,61.968,333.967,58.731,333.967z M11.725,322.241h41.143v-39.993H11.725
					V322.241z"/>
			</g>
		</g>
		<g>
			<g>
				<path class="st0" d="M111.378,333.967H58.51c-3.237,0-5.862-2.625-5.862-5.862v-51.719c0-3.237,2.625-5.862,5.862-5.862h52.868
					c3.238,0,5.863,2.625,5.863,5.862v51.719C117.241,331.342,114.616,333.967,111.378,333.967z M64.373,322.241h41.143v-39.993
					H64.373V322.241z"/>
			</g>
		</g>
		<g>
			<g>
				<path class="st0" d="M164.027,333.967h-52.868c-3.238,0-5.863-2.625-5.863-5.862v-51.719c0-3.237,2.625-5.862,5.863-5.862
					h52.868c3.238,0,5.863,2.625,5.863,5.862v51.719C169.89,331.342,167.265,333.967,164.027,333.967z M117.021,322.241h41.143
					v-39.993h-41.143V322.241z"/>
			</g>
		</g>
		<g>
			<g>
				<path class="st0" d="M216.675,333.967h-52.868c-3.238,0-5.863-2.625-5.863-5.862v-51.719c0-3.237,2.625-5.862,5.863-5.862
					h52.868c3.238,0,5.863,2.625,5.863,5.862v51.719C222.538,331.342,219.913,333.967,216.675,333.967z M169.669,322.241h41.144
					v-39.993h-41.144V322.241z"/>
			</g>
		</g>
		<g>
			<g>
				<path class="st0" d="M269.323,333.967h-52.868c-3.238,0-5.863-2.625-5.863-5.862v-51.719c0-3.237,2.625-5.862,5.863-5.862
					h52.868c3.238,0,5.863,2.625,5.863,5.862v51.719C275.185,331.342,272.56,333.967,269.323,333.967z M222.317,322.241h41.143
					v-39.993h-41.143V322.241z"/>
			</g>
		</g>
		<g>
			<g>
				<path class="st0" d="M321.971,333.967h-52.868c-3.238,0-5.863-2.625-5.863-5.862v-51.719c0-3.237,2.625-5.862,5.863-5.862
					h52.868c3.238,0,5.863,2.625,5.863,5.862v51.719C327.834,331.342,325.209,333.967,321.971,333.967z M274.965,322.241h41.143
					v-39.993h-41.143V322.241z"/>
			</g>
		</g>
		<g>
			<g>
				<path class="st0" d="M359.361,333.967h-19.18c-3.238,0-5.863-2.625-5.863-5.862V195.866l-53.729-62.099H164.027
					c-3.238,0-5.862-2.625-5.862-5.863v-21.509c0-3.238,2.624-5.863,5.862-5.863H293.97c1.729,0,3.37,0.764,4.484,2.086
					l65.391,77.641c0.891,1.058,1.378,2.395,1.378,3.776v144.069C365.224,331.342,362.599,333.967,359.361,333.967z
					 M346.044,322.241h7.455V186.176l-62.256-73.918H169.89v9.785h113.38c1.702,0,3.32,0.738,4.434,2.025l56.912,65.777
					c0.922,1.065,1.429,2.428,1.429,3.836V322.241z"/>
			</g>
		</g>
		<g>
			<g>
				<path class="st0" d="M164.027,163.182h-24.198c-3.238,0-5.863-2.625-5.863-5.863v-50.923c0-3.238,2.625-5.863,5.863-5.863
					h24.198c3.238,0,5.863,2.625,5.863,5.863v50.923C169.89,160.557,167.265,163.182,164.027,163.182z M145.691,151.456h12.474
					v-39.198h-12.474V151.456z"/>
			</g>
		</g>
		<g>
			<g>
				<path class="st0" d="M339.641,163.182c-3.238,0-5.863-2.625-5.863-5.863v-24.676H313.35c-3.238,0-5.863-2.625-5.863-5.863
					c0-3.236,2.625-5.861,5.863-5.861h26.292c3.237,0,5.862,2.625,5.862,5.861v30.539
					C345.503,160.557,342.878,163.182,339.641,163.182z"/>
			</g>
		</g>
		<g>
			<g>
				<path class="st0" d="M359.361,189.898c-3.237,0-5.862-2.625-5.862-5.863v-71.777H293.97c-3.238,0-5.863-2.625-5.863-5.862
					c0-3.238,2.625-5.863,5.863-5.863h65.391c3.238,0,5.863,2.625,5.863,5.863v77.64
					C365.224,187.273,362.599,189.898,359.361,189.898z"/>
			</g>
		</g>
		<g>
			<g>
				<path class="st0" d="M215.422,227.008h-21.938c-3.237,0-5.862-2.625-5.862-5.862v-19.981h-68.535v19.981
					c0,3.237-2.625,5.862-5.862,5.862H91.285c-3.237,0-5.862-2.625-5.862-5.862v-44.532c0-3.238,2.625-5.863,5.862-5.863h124.137
					c3.238,0,5.863,2.625,5.863,5.863v44.532C221.285,224.383,218.66,227.008,215.422,227.008z M199.346,215.282h10.213v-32.808
					H97.148v32.808h10.213v-19.981c0-3.236,2.625-5.861,5.863-5.861h80.26c3.238,0,5.863,2.625,5.863,5.861V215.282z"/>
			</g>
		</g>
		<g>
			<g>
				<path class="st0" d="M153.353,182.475c-3.238,0-5.863-2.625-5.863-5.861v-19.295c0-3.237,2.625-5.862,5.863-5.862
					c3.237,0,5.862,2.625,5.862,5.862v19.295C159.216,179.85,156.591,182.475,153.353,182.475z"/>
			</g>
		</g>
		<g>
			<g>
				<path class="st0" d="M163.108,227.008h-19.509c-3.238,0-5.863-2.625-5.863-5.862v-25.845c0-3.236,2.625-5.861,5.863-5.861
					h19.509c3.238,0,5.863,2.625,5.863,5.861v25.845C168.971,224.383,166.346,227.008,163.108,227.008z M149.461,215.282h7.784
					v-14.118h-7.784V215.282z"/>
			</g>
		</g>
		<g>
			<g>
				<circle class="st6" cx="139.829" cy="366.854" r="38.75"/>
			</g>
		</g>
		<g>
			<g>
				<circle class="st6" cx="236.992" cy="366.854" r="38.751"/>
			</g>
		</g>
		<g>
			<g>
				<circle class="st6" cx="434.97" cy="366.854" r="38.75"/>
			</g>
		</g>
		<g>
			<g>
				<path class="st0" d="M139.829,411.468c-24.6,0-44.613-20.014-44.613-44.613c0-24.6,20.014-44.613,44.613-44.613
					s44.613,20.014,44.613,44.613C184.441,391.454,164.428,411.468,139.829,411.468z M139.829,333.967
					c-18.135,0-32.888,14.753-32.888,32.888c0,18.134,14.753,32.888,32.888,32.888c18.134,0,32.888-14.754,32.888-32.888
					C172.716,348.72,157.963,333.967,139.829,333.967z"/>
			</g>
		</g>
		<g>
			<g>
				<path class="st0" d="M236.992,411.468c-24.6,0-44.613-20.014-44.613-44.613c0-24.6,20.014-44.613,44.613-44.613
					c24.6,0,44.613,20.014,44.613,44.613C281.605,391.454,261.592,411.468,236.992,411.468z M236.992,333.967
					c-18.135,0-32.888,14.753-32.888,32.888c0,18.134,14.753,32.888,32.888,32.888c18.134,0,32.888-14.754,32.888-32.888
					C269.88,348.72,255.126,333.967,236.992,333.967z"/>
			</g>
		</g>
		<g>
			<g>
				<path class="st0" d="M434.97,411.468c-24.6,0-44.613-20.014-44.613-44.613c0-24.6,20.014-44.613,44.613-44.613
					c24.6,0,44.613,20.014,44.613,44.613C479.583,391.454,459.57,411.468,434.97,411.468z M434.97,333.967
					c-18.134,0-32.888,14.753-32.888,32.888c0,18.134,14.754,32.888,32.888,32.888c18.135,0,32.888-14.754,32.888-32.888
					C467.858,348.72,453.105,333.967,434.97,333.967z"/>
			</g>
		</g>
		<g>
			<g>
				<circle class="st7" cx="139.829" cy="366.854" r="18.435"/>
			</g>
		</g>
		<g>
			<g>
				<circle class="st7" cx="236.992" cy="366.854" r="18.435"/>
			</g>
		</g>
		<g>
			<g>
				<circle class="st7" cx="434.97" cy="366.854" r="18.435"/>
			</g>
		</g>
		<g>
			<g>
				<path class="st0" d="M139.829,391.152c-13.397,0-24.297-10.9-24.297-24.298c0-13.397,10.9-24.298,24.297-24.298
					c13.397,0,24.297,10.9,24.297,24.298C164.126,380.252,153.226,391.152,139.829,391.152z M139.829,354.282
					c-6.932,0-12.572,5.64-12.572,12.572c0,6.932,5.64,12.571,12.572,12.571s12.572-5.64,12.572-12.571
					C152.4,359.922,146.761,354.282,139.829,354.282z"/>
			</g>
		</g>
		<g>
			<g>
				<path class="st0" d="M236.992,391.152c-13.398,0-24.297-10.9-24.297-24.298c0-13.397,10.899-24.298,24.297-24.298
					c13.397,0,24.297,10.9,24.297,24.298C261.29,380.252,250.39,391.152,236.992,391.152z M236.992,354.282
					c-6.932,0-12.572,5.64-12.572,12.572c0,6.932,5.64,12.571,12.572,12.571c6.932,0,12.572-5.64,12.572-12.571
					C249.564,359.922,243.924,354.282,236.992,354.282z"/>
			</g>
		</g>
		<g>
			<g>
				<path class="st0" d="M434.97,391.152c-13.397,0-24.297-10.9-24.297-24.298c0-13.397,10.9-24.298,24.297-24.298
					c13.397,0,24.297,10.9,24.297,24.298C459.268,380.252,448.368,391.152,434.97,391.152z M434.97,354.282
					c-6.932,0-12.572,5.64-12.572,12.572c0,6.932,5.64,12.571,12.572,12.571c6.932,0,12.572-5.64,12.572-12.571
					C447.542,359.922,441.902,354.282,434.97,354.282z"/>
			</g>
		</g>
		<g>
			<g>
				<polygon class="st4" points="433.549,204.724 457.57,264.534 478.475,264.534 450.675,204.724 				"/>
			</g>
		</g>
		<g>
			<g>
				<path class="st0" d="M478.475,270.397h-79.186c-3.238,0-5.863-2.625-5.863-5.862v-59.812c0-3.236,2.625-5.861,5.863-5.861
					h51.386c2.281,0,4.355,1.322,5.316,3.391l27.799,59.812c0.844,1.815,0.703,3.936-0.374,5.624
					C482.34,269.375,480.477,270.397,478.475,270.397z M405.151,258.672h64.133l-22.349-48.086h-41.784V258.672z"/>
			</g>
		</g>
	</g>
</g>
</svg>
