<svg xmlns="http://www.w3.org/2000/svg" xmlns:xlink="http://www.w3.org/1999/xlink" width="150" zoomAndPan="magnify" viewBox="0 0 112.5 112.499997" height="150" preserveAspectRatio="xMidYMid meet" version="1.0"><defs><clipPath id="2432685e9c"><path d="M 0 0 L 112.003906 0 L 112.003906 112.003906 L 0 112.003906 Z M 0 0 " clip-rule="nonzero"/></clipPath><clipPath id="c73a196f0f"><path d="M 11.199219 11.199219 L 34.894531 11.199219 L 34.894531 34.894531 L 11.199219 34.894531 Z M 11.199219 11.199219 " clip-rule="nonzero"/></clipPath><clipPath id="0fc2ddff0e"><path d="M 23.046875 11.199219 C 16.503906 11.199219 11.199219 16.503906 11.199219 23.046875 C 11.199219 29.589844 16.503906 34.894531 23.046875 34.894531 C 29.589844 34.894531 34.894531 29.589844 34.894531 23.046875 C 34.894531 16.503906 29.589844 11.199219 23.046875 11.199219 Z M 23.046875 11.199219 " clip-rule="nonzero"/></clipPath><clipPath id="1104107b3a"><path d="M 77.105469 11.199219 L 100.800781 11.199219 L 100.800781 34.894531 L 77.105469 34.894531 Z M 77.105469 11.199219 " clip-rule="nonzero"/></clipPath><clipPath id="1f61ec9dcb"><path d="M 88.953125 11.199219 C 82.410156 11.199219 77.105469 16.503906 77.105469 23.046875 C 77.105469 29.589844 82.410156 34.894531 88.953125 34.894531 C 95.496094 34.894531 100.800781 29.589844 100.800781 23.046875 C 100.800781 16.503906 95.496094 11.199219 88.953125 11.199219 Z M 88.953125 11.199219 " clip-rule="nonzero"/></clipPath><clipPath id="fc459eb846"><path d="M 77.105469 77.105469 L 100.800781 77.105469 L 100.800781 100.800781 L 77.105469 100.800781 Z M 77.105469 77.105469 " clip-rule="nonzero"/></clipPath><clipPath id="08b3bd31eb"><path d="M 88.953125 77.105469 C 82.410156 77.105469 77.105469 82.410156 77.105469 88.953125 C 77.105469 95.496094 82.410156 100.800781 88.953125 100.800781 C 95.496094 100.800781 100.800781 95.496094 100.800781 88.953125 C 100.800781 82.410156 95.496094 77.105469 88.953125 77.105469 Z M 88.953125 77.105469 " clip-rule="nonzero"/></clipPath><clipPath id="104e8afba2"><path d="M 11.199219 77.105469 L 34.894531 77.105469 L 34.894531 100.800781 L 11.199219 100.800781 Z M 11.199219 77.105469 " clip-rule="nonzero"/></clipPath><clipPath id="1484226079"><path d="M 23.046875 77.105469 C 16.503906 77.105469 11.199219 82.410156 11.199219 88.953125 C 11.199219 95.496094 16.503906 100.800781 23.046875 100.800781 C 29.589844 100.800781 34.894531 95.496094 34.894531 88.953125 C 34.894531 82.410156 29.589844 77.105469 23.046875 77.105469 Z M 23.046875 77.105469 " clip-rule="nonzero"/></clipPath><clipPath id="51c9a3d2d5"><path d="M 44.152344 44.152344 L 67.847656 44.152344 L 67.847656 67.847656 L 44.152344 67.847656 Z M 44.152344 44.152344 " clip-rule="nonzero"/></clipPath><clipPath id="b71b40af2d"><path d="M 56 44.152344 C 49.457031 44.152344 44.152344 49.457031 44.152344 56 C 44.152344 62.542969 49.457031 67.847656 56 67.847656 C 62.542969 67.847656 67.847656 62.542969 67.847656 56 C 67.847656 49.457031 62.542969 44.152344 56 44.152344 Z M 56 44.152344 " clip-rule="nonzero"/></clipPath><clipPath id="7d89134112"><path d="M 44.152344 77.105469 L 67.847656 77.105469 L 67.847656 100.800781 L 44.152344 100.800781 Z M 44.152344 77.105469 " clip-rule="nonzero"/></clipPath><clipPath id="49bb4bd7bb"><path d="M 56 77.105469 C 49.457031 77.105469 44.152344 82.410156 44.152344 88.953125 C 44.152344 95.496094 49.457031 100.800781 56 100.800781 C 62.542969 100.800781 67.847656 95.496094 67.847656 88.953125 C 67.847656 82.410156 62.542969 77.105469 56 77.105469 Z M 56 77.105469 " clip-rule="nonzero"/></clipPath><clipPath id="75cc5340c5"><path d="M 77.105469 44.152344 L 100.800781 44.152344 L 100.800781 67.847656 L 77.105469 67.847656 Z M 77.105469 44.152344 " clip-rule="nonzero"/></clipPath><clipPath id="e881fcd863"><path d="M 88.953125 44.152344 C 82.410156 44.152344 77.105469 49.457031 77.105469 56 C 77.105469 62.542969 82.410156 67.847656 88.953125 67.847656 C 95.496094 67.847656 100.800781 62.542969 100.800781 56 C 100.800781 49.457031 95.496094 44.152344 88.953125 44.152344 Z M 88.953125 44.152344 " clip-rule="nonzero"/></clipPath><clipPath id="0dc9a27db7"><path d="M 11.199219 44.152344 L 34.894531 44.152344 L 34.894531 67.847656 L 11.199219 67.847656 Z M 11.199219 44.152344 " clip-rule="nonzero"/></clipPath><clipPath id="3e22fe48a8"><path d="M 23.046875 44.152344 C 16.503906 44.152344 11.199219 49.457031 11.199219 56 C 11.199219 62.542969 16.503906 67.847656 23.046875 67.847656 C 29.589844 67.847656 34.894531 62.542969 34.894531 56 C 34.894531 49.457031 29.589844 44.152344 23.046875 44.152344 Z M 23.046875 44.152344 " clip-rule="nonzero"/></clipPath><clipPath id="6d6ecc4311"><path d="M 44.152344 11.199219 L 67.847656 11.199219 L 67.847656 34.894531 L 44.152344 34.894531 Z M 44.152344 11.199219 " clip-rule="nonzero"/></clipPath><clipPath id="9f92c3a870"><path d="M 56 11.199219 C 49.457031 11.199219 44.152344 16.503906 44.152344 23.046875 C 44.152344 29.589844 49.457031 34.894531 56 34.894531 C 62.542969 34.894531 67.847656 29.589844 67.847656 23.046875 C 67.847656 16.503906 62.542969 11.199219 56 11.199219 Z M 56 11.199219 " clip-rule="nonzero"/></clipPath></defs><g clip-path="url(#2432685e9c)"><path fill="#ffffff" d="M 0 0 L 112.003906 0 L 112.003906 112.003906 L 0 112.003906 Z M 0 0 " fill-opacity="1" fill-rule="nonzero"/><path fill="#ffffff" d="M 0 0 L 112.003906 0 L 112.003906 112.003906 L 0 112.003906 Z M 0 0 " fill-opacity="1" fill-rule="nonzero"/></g><g clip-path="url(#c73a196f0f)"><g clip-path="url(#0fc2ddff0e)"><path fill="#000000" d="M 11.199219 11.199219 L 34.894531 11.199219 L 34.894531 34.894531 L 11.199219 34.894531 Z M 11.199219 11.199219 " fill-opacity="1" fill-rule="nonzero"/></g></g><g clip-path="url(#1104107b3a)"><g clip-path="url(#1f61ec9dcb)"><path fill="#000000" d="M 77.105469 11.199219 L 100.800781 11.199219 L 100.800781 34.894531 L 77.105469 34.894531 Z M 77.105469 11.199219 " fill-opacity="1" fill-rule="nonzero"/></g></g><g clip-path="url(#fc459eb846)"><g clip-path="url(#08b3bd31eb)"><path fill="#000000" d="M 77.105469 77.105469 L 100.800781 77.105469 L 100.800781 100.800781 L 77.105469 100.800781 Z M 77.105469 77.105469 " fill-opacity="1" fill-rule="nonzero"/></g></g><g clip-path="url(#104e8afba2)"><g clip-path="url(#1484226079)"><path fill="#000000" d="M 11.199219 77.105469 L 34.894531 77.105469 L 34.894531 100.800781 L 11.199219 100.800781 Z M 11.199219 77.105469 " fill-opacity="1" fill-rule="nonzero"/></g></g><g clip-path="url(#51c9a3d2d5)"><g clip-path="url(#b71b40af2d)"><path fill="#000000" d="M 44.152344 44.152344 L 67.847656 44.152344 L 67.847656 67.847656 L 44.152344 67.847656 Z M 44.152344 44.152344 " fill-opacity="1" fill-rule="nonzero"/></g></g><g clip-path="url(#7d89134112)"><g clip-path="url(#49bb4bd7bb)"><path fill="#04adbf" d="M 44.152344 77.105469 L 67.847656 77.105469 L 67.847656 100.800781 L 44.152344 100.800781 Z M 44.152344 77.105469 " fill-opacity="1" fill-rule="nonzero"/></g></g><g clip-path="url(#75cc5340c5)"><g clip-path="url(#e881fcd863)"><path fill="#04adbf" d="M 77.105469 44.152344 L 100.800781 44.152344 L 100.800781 67.847656 L 77.105469 67.847656 Z M 77.105469 44.152344 " fill-opacity="1" fill-rule="nonzero"/></g></g><g clip-path="url(#0dc9a27db7)"><g clip-path="url(#3e22fe48a8)"><path fill="#04adbf" d="M 11.199219 44.152344 L 34.894531 44.152344 L 34.894531 67.847656 L 11.199219 67.847656 Z M 11.199219 44.152344 " fill-opacity="1" fill-rule="nonzero"/></g></g><g clip-path="url(#6d6ecc4311)"><g clip-path="url(#9f92c3a870)"><path fill="#04adbf" d="M 44.152344 11.199219 L 67.847656 11.199219 L 67.847656 34.894531 L 44.152344 34.894531 Z M 44.152344 11.199219 " fill-opacity="1" fill-rule="nonzero"/></g></g></svg>